<svg width="24" height="24" viewBox="0 0 24 24" fill="none" xmlns="http://www.w3.org/2000/svg">
<path d="M16.96 6.16998C18.96 7.55998 20.34 9.76998 20.62 12.32" stroke="url(#paint0_linear_2150_66)" stroke-width="1.5" stroke-linecap="round" stroke-linejoin="round"/>
<path d="M3.48999 12.37C3.74999 9.82997 5.10999 7.61997 7.08999 6.21997" stroke="url(#paint1_linear_2150_66)" stroke-width="1.5" stroke-linecap="round" stroke-linejoin="round"/>
<path d="M8.19 20.94C9.35 21.53 10.67 21.86 12.06 21.86C13.4 21.86 14.66 21.56 15.79 21.01" stroke="url(#paint2_linear_2150_66)" stroke-width="1.5" stroke-linecap="round" stroke-linejoin="round"/>
<path d="M12.06 7.70001C13.5954 7.70001 14.84 6.45537 14.84 4.92001C14.84 3.38466 13.5954 2.14001 12.06 2.14001C10.5246 2.14001 9.28 3.38466 9.28 4.92001C9.28 6.45537 10.5246 7.70001 12.06 7.70001Z" stroke="url(#paint3_linear_2150_66)" stroke-width="1.5" stroke-linecap="round" stroke-linejoin="round"/>
<path d="M4.82999 19.92C6.36534 19.92 7.60999 18.6753 7.60999 17.14C7.60999 15.6046 6.36534 14.36 4.82999 14.36C3.29464 14.36 2.04999 15.6046 2.04999 17.14C2.04999 18.6753 3.29464 19.92 4.82999 19.92Z" stroke="url(#paint4_linear_2150_66)" stroke-width="1.5" stroke-linecap="round" stroke-linejoin="round"/>
<path d="M19.17 19.92C20.7054 19.92 21.95 18.6753 21.95 17.14C21.95 15.6046 20.7054 14.36 19.17 14.36C17.6346 14.36 16.39 15.6046 16.39 17.14C16.39 18.6753 17.6346 19.92 19.17 19.92Z" stroke="url(#paint5_linear_2150_66)" stroke-width="1.5" stroke-linecap="round" stroke-linejoin="round"/>
<defs>
<linearGradient id="paint0_linear_2150_66" x1="18.79" y1="6.16998" x2="18.79" y2="12.32" gradientUnits="userSpaceOnUse">
<stop stop-color="#FE5F6E"/>
<stop offset="1" stop-color="#923CFF"/>
</linearGradient>
<linearGradient id="paint1_linear_2150_66" x1="5.28999" y1="6.21997" x2="5.28999" y2="12.37" gradientUnits="userSpaceOnUse">
<stop stop-color="#FE5F6E"/>
<stop offset="1" stop-color="#923CFF"/>
</linearGradient>
<linearGradient id="paint2_linear_2150_66" x1="11.99" y1="20.94" x2="11.99" y2="21.86" gradientUnits="userSpaceOnUse">
<stop stop-color="#FE5F6E"/>
<stop offset="1" stop-color="#923CFF"/>
</linearGradient>
<linearGradient id="paint3_linear_2150_66" x1="12.06" y1="2.14001" x2="12.06" y2="7.70001" gradientUnits="userSpaceOnUse">
<stop stop-color="#FE5F6E"/>
<stop offset="1" stop-color="#923CFF"/>
</linearGradient>
<linearGradient id="paint4_linear_2150_66" x1="4.82999" y1="14.36" x2="4.82999" y2="19.92" gradientUnits="userSpaceOnUse">
<stop stop-color="#FE5F6E"/>
<stop offset="1" stop-color="#923CFF"/>
</linearGradient>
<linearGradient id="paint5_linear_2150_66" x1="19.17" y1="14.36" x2="19.17" y2="19.92" gradientUnits="userSpaceOnUse">
<stop stop-color="#FE5F6E"/>
<stop offset="1" stop-color="#923CFF"/>
</linearGradient>
</defs>
</svg>
