<svg width="24" height="24" viewBox="0 0 24 24" fill="none" xmlns="http://www.w3.org/2000/svg">
<path d="M10 19C10 20.1 10.9 21 12 21C13.1 21 14 20.1 14 19C14 17.9 13.1 17 12 17C10.9 17 10 17.9 10 19Z" stroke="url(#paint0_linear_2109_67)" stroke-width="1.5"/>
<path d="M10 5C10 6.1 10.9 7 12 7C13.1 7 14 6.1 14 5C14 3.9 13.1 3 12 3C10.9 3 10 3.9 10 5Z" stroke="url(#paint1_linear_2109_67)" stroke-width="1.5"/>
<path d="M10 12C10 13.1 10.9 14 12 14C13.1 14 14 13.1 14 12C14 10.9 13.1 10 12 10C10.9 10 10 10.9 10 12Z" stroke="url(#paint2_linear_2109_67)" stroke-width="1.5"/>
<defs>
<linearGradient id="paint0_linear_2109_67" x1="12" y1="17" x2="12" y2="21" gradientUnits="userSpaceOnUse">
<stop stop-color="#FE5F6E"/>
<stop offset="1" stop-color="#923CFF"/>
</linearGradient>
<linearGradient id="paint1_linear_2109_67" x1="12" y1="3" x2="12" y2="7" gradientUnits="userSpaceOnUse">
<stop stop-color="#FE5F6E"/>
<stop offset="1" stop-color="#923CFF"/>
</linearGradient>
<linearGradient id="paint2_linear_2109_67" x1="12" y1="10" x2="12" y2="14" gradientUnits="userSpaceOnUse">
<stop stop-color="#FE5F6E"/>
<stop offset="1" stop-color="#923CFF"/>
</linearGradient>
</defs>
</svg>
